<svg xmlns="http://www.w3.org/2000/svg" viewBox="0 0 122.93 107.29"><defs><style>.cls-1{fill:#fff;fill-rule:evenodd;}</style></defs><g id="Layer_2" data-name="Layer 2"><g id="Layer_1-2" data-name="Layer 1"><path class="cls-1" d="M35.2,6h.08A4.16,4.16,0,0,1,40,7.77L58.82,37.29a4.19,4.19,0,0,1-1.3,5.76h0a4.2,4.2,0,0,1-5.76-1.3L34.7,15l-1.3.43a4.15,4.15,0,0,1-5.25-2.74h0a4.29,4.29,0,0,1,2.73-5.25Z"/><path class="cls-1" d="M25.92,18.21h0a4.13,4.13,0,0,1,4.82,1.72L49.53,49.38a4.18,4.18,0,0,1-1.29,5.76h0a4.1,4.1,0,0,1-5.76-1.22L25.41,27.13l-1.29.36a4.17,4.17,0,0,1-5.26-2.66h0a4.19,4.19,0,0,1,2.74-5.26Z"/><path class="cls-1" d="M18.93,35.05h0a4,4,0,0,1,5.47,1.23l18.08,28a4.05,4.05,0,0,1-1.23,5.54h0a4,4,0,0,1-5.47-1.22l-18.07-28A4.07,4.07,0,0,1,18.93,35.05Z"/><path class="cls-1" d="M48.74.21h0a4.13,4.13,0,0,1,4.82,1.72l18.8,29.45a4.29,4.29,0,0,1-1.3,5.83h0a4.18,4.18,0,0,1-5.76-1.29L48.24,9.13l-1.3.44a4.28,4.28,0,0,1-5.26-2.74h0a4.13,4.13,0,0,1,2.74-5.26Z"/><path class="cls-1" d="M103.1,33.11c3.89,3.6,5.76,6.12,8.78,6.12s9.36-.58,10.23-.43,1.44,1.87-.36,2-10.59,1.95-12.31,2.09c-13,1.44-16.78,15.7-22.11,24.77C66.6,102.73,41.9,87.76,37.22,92.29c-3.17,3-6.48,13.83-16.34,14.84s-16.85-2.81-19-6.2S-1.73,93.81,4,89.49c5.47-4.18,21.24-5.91,27-12.6,3.38-3.89,4.75-7.2,3-11l8.57-1.37c3.24,5.76-.94,12.17-4.54,16.49a31.42,31.42,0,0,0,22.68.51C72.79,77,78.84,67,80.35,64.43s9.07-17.06,10.73-19.94a13.08,13.08,0,0,1,6.12-5.26c1.29-.43-3.32-3.67-5.4-3.24s-2.38.14-8.79,5.33-9.5,2.88-9.5,2.88-6-4.83-8.21-8.28,6.26-5.76,6.26-5.76,2.88,7.2,6,4.89C85.1,29.22,94.1,24.9,103.1,33.11Zm-72,51.55A113.28,113.28,0,0,1,18,90c-7,2.38-12.24,3.46-11.88,6.48s8.78,6.62,14.25,4.75c5.11-1.73,10.66-9.07,12.46-14C33.4,85.53,33.26,84.59,31.1,84.66Z"/></g></g></svg>