<?xml version="1.0" encoding="UTF-8"?>
<!DOCTYPE svg PUBLIC "-//W3C//DTD SVG 1.1//EN" "http://www.w3.org/Graphics/SVG/1.1/DTD/svg11.dtd">
<!-- Creator: CorelDRAW X7 -->
<svg xmlns="http://www.w3.org/2000/svg" xml:space="preserve" width="7.55594in" height="1.49023in" version="1.1" style="shape-rendering:geometricPrecision; text-rendering:geometricPrecision; image-rendering:optimizeQuality; fill-rule:evenodd; clip-rule:evenodd"
viewBox="0 0 7556 1490"
 xmlns:xlink="http://www.w3.org/1999/xlink">
 <defs>
  <style type="text/css">
   <![CDATA[
    .str0 {stroke:#687A6E;stroke-width:6.94488}
    .fil1 {fill:#687A6E}
    .fil0 {fill:#687A6E;fill-rule:nonzero}
   ]]>
  </style>
 </defs>
 <g id="Layer_x0020_1">
  <metadata id="CorelCorpID_0Corel-Layer"/>
  <g id="_882300643616">
   <g>
    <path class="fil0" d="M2592 1069l-208 -255 0 255 -115 0 0 -573 115 0 0 257 208 -257 139 0 -236 284 243 289 -146 0zm423 7c-44,0 -83,-9 -118,-29 -35,-19 -63,-47 -83,-82 -20,-36 -30,-77 -30,-123 0,-47 11,-88 31,-124 21,-35 49,-63 84,-82 36,-19 75,-29 119,-29 44,0 84,10 119,29 36,19 64,47 84,82 21,36 31,77 31,124 0,46 -10,87 -31,123 -22,35 -50,63 -86,82 -36,20 -76,29 -120,29zm0 -100c21,0 40,-5 59,-15 18,-10 33,-25 44,-46 10,-20 16,-44 16,-73 0,-44 -11,-77 -34,-100 -23,-23 -51,-35 -83,-35 -33,0 -61,12 -83,35 -22,23 -33,56 -33,100 0,43 11,76 32,99 22,24 49,35 82,35zm744 -144c0,16 -1,31 -3,44l-332 0c2,33 14,59 34,77 20,19 45,28 75,28 43,0 73,-18 91,-55l124 0c-13,44 -38,80 -76,108 -37,28 -83,42 -137,42 -43,0 -83,-9 -117,-29 -35,-19 -62,-47 -82,-82 -19,-36 -29,-77 -29,-123 0,-47 10,-89 29,-124 19,-36 46,-63 80,-82 35,-20 74,-29 119,-29 44,0 82,9 116,28 35,18 61,45 80,79 19,34 28,73 28,118zm-119 -33c0,-30 -11,-53 -32,-71 -20,-18 -46,-27 -76,-27 -28,0 -52,9 -72,26 -19,17 -31,41 -36,72l216 0zm455 -191c54,0 98,17 131,51 34,34 50,82 50,143l0 267 -114 0 0 -251c0,-36 -10,-64 -28,-84 -18,-19 -42,-29 -73,-29 -32,0 -57,10 -76,29 -18,20 -27,48 -27,84l0 251 -115 0 0 -455 115 0 0 57c15,-20 35,-35 59,-46 23,-12 50,-17 78,-17zm261 232c0,-46 9,-87 28,-122 18,-36 43,-63 75,-82 31,-20 67,-29 105,-29 30,0 58,6 85,19 27,13 48,30 64,51l0 -215 117 0 0 607 -117 0 0 -67c-14,22 -34,40 -60,54 -26,13 -55,20 -89,20 -39,0 -74,-10 -105,-29 -32,-20 -57,-48 -75,-84 -19,-35 -28,-77 -28,-123zm358 2c0,-28 -6,-52 -17,-72 -10,-20 -25,-36 -44,-46 -18,-11 -38,-16 -60,-16 -21,0 -41,5 -59,15 -18,11 -33,26 -44,46 -11,20 -17,44 -17,71 0,27 6,51 17,72 11,20 26,36 45,47 18,11 37,16 58,16 22,0 42,-5 60,-16 19,-10 34,-26 44,-46 11,-20 17,-43 17,-71zm198 -2c0,-46 10,-87 28,-122 18,-36 43,-63 75,-82 31,-20 66,-29 105,-29 34,0 64,7 89,20 26,14 46,31 61,52l0 -65 116 0 0 455 -116 0 0 -67c-14,22 -35,39 -61,53 -26,14 -56,21 -90,21 -38,0 -73,-10 -104,-29 -32,-20 -57,-48 -75,-84 -18,-35 -28,-77 -28,-123zm358 2c0,-28 -5,-52 -16,-72 -11,-20 -26,-36 -44,-46 -19,-11 -39,-16 -60,-16 -22,0 -41,5 -59,15 -18,11 -33,26 -44,46 -12,20 -17,44 -17,71 0,27 5,51 17,72 11,20 26,36 44,47 18,11 38,16 59,16 21,0 41,-5 60,-16 18,-10 33,-26 44,-46 11,-20 16,-43 16,-71zm480 -234c55,0 98,17 132,51 33,34 50,82 50,143l0 267 -115 0 0 -251c0,-36 -9,-64 -27,-84 -18,-19 -43,-29 -74,-29 -32,0 -57,10 -75,29 -18,20 -28,48 -28,84l0 251 -114 0 0 -455 114 0 0 57c16,-20 35,-35 59,-46 24,-12 50,-17 78,-17zm469 -1c34,0 64,7 90,20 25,13 46,31 60,52l0 -65 116 0 0 458c0,42 -8,80 -25,113 -17,33 -43,59 -77,79 -34,19 -75,29 -123,29 -64,0 -117,-15 -159,-45 -41,-30 -64,-71 -70,-123l114 0c6,21 19,37 39,49 20,13 44,19 73,19 33,0 60,-10 81,-30 21,-20 31,-50 31,-91l0 -70c-14,21 -35,39 -61,53 -26,14 -56,21 -89,21 -38,0 -73,-10 -105,-29 -32,-20 -57,-48 -75,-84 -18,-35 -28,-77 -28,-123 0,-46 10,-87 28,-122 18,-36 43,-63 75,-82 31,-20 66,-29 105,-29zm150 235c0,-28 -5,-52 -16,-72 -11,-20 -26,-36 -44,-46 -19,-11 -39,-16 -60,-16 -22,0 -41,5 -59,15 -18,11 -33,26 -44,46 -12,20 -17,44 -17,71 0,27 5,51 17,72 11,20 26,36 44,47 18,11 38,16 59,16 21,0 41,-5 60,-16 18,-10 33,-26 44,-46 11,-20 16,-43 16,-71z"/>
    <path class="fil1 str0" d="M6730 1179l720 0c58,0 106,-47 106,-105l0 -653c0,-58 -48,-106 -106,-106l-720 0c-58,0 -105,48 -105,106l0 653c0,58 47,105 105,105zm94 -619c-20,0 -37,-6 -51,-19 -13,-13 -20,-29 -20,-48 0,-19 7,-35 20,-48 14,-13 31,-20 51,-20 20,0 37,7 50,20 14,13 21,29 21,48 0,19 -7,35 -21,48 -13,13 -30,19 -50,19zm57 54l0 455 -115 0 0 -455 115 0zm365 -6c54,0 98,17 131,51 34,34 50,82 50,143l0 267 -115 0 0 -251c0,-36 -9,-64 -27,-83 -18,-20 -42,-30 -74,-30 -31,0 -56,10 -75,30 -18,19 -27,47 -27,83l0 251 -115 0 0 -455 115 0 0 57c15,-20 35,-35 58,-46 24,-12 50,-17 79,-17z"/>
   </g>
   <g>
    <path class="fil1" d="M489 84l1 0c24,-8 52,2 66,24l261 410c17,27 9,63 -18,80l0 0c-27,17 -63,9 -80,-18l-237 -372 -18 6c-31,10 -63,-7 -73,-38l0 0c-9,-30 8,-63 38,-73l60 -19z"/>
    <path class="fil1" d="M360 253l0 0c25,-8 53,1 67,24l261 409c17,27 9,63 -18,80l0 0c-27,18 -63,10 -80,-17l-237 -372 -18 5c-31,10 -63,-7 -73,-37l0 0c-10,-31 8,-64 38,-73l60 -19z"/>
    <path class="fil1" d="M263 487l0 0c25,-16 60,-9 76,17l251 389c16,26 9,60 -17,77l0 0c-26,16 -60,9 -76,-17l-251 -389c-16,-26 -9,-60 17,-77z"/>
    <path class="fil1" d="M677 3l0 0c25,-8 53,1 67,24l261 409c17,27 9,63 -18,81l0 0c-27,17 -63,9 -80,-18l-237 -372 -18 6c-31,9 -63,-8 -73,-38l0 0c-10,-31 7,-64 38,-73l60 -19z"/>
    <path class="fil1" d="M1432 460c54,50 80,85 122,85 43,0 130,-8 142,-6 12,3 20,26 -5,28 -25,2 -147,27 -171,29 -180,20 -233,218 -307,344 -288,487 -631,279 -696,342 -44,42 -90,192 -227,206 -137,14 -234,-39 -264,-86 -29,-48 -50,-99 30,-159 76,-58 295,-82 375,-175 47,-54 66,-100 42,-152l119 -19c45,80 -13,169 -63,229 0,0 148,70 315,7 167,-63 251,-202 272,-238 21,-36 126,-237 149,-277 24,-41 67,-67 85,-73 18,-6 -46,-51 -75,-45 -30,7 -33,2 -122,74 -90,72 -132,40 -132,40 0,0 -83,-67 -114,-115 -31,-48 87,-80 87,-80 0,0 40,100 83,68 105,-81 230,-141 355,-27zm-1000 716c0,0 -85,42 -182,74 -97,33 -170,48 -165,90 5,43 122,92 198,66 71,-24 148,-126 173,-194 8,-24 6,-37 -24,-36z"/>
   </g>
  </g>
 </g>
</svg>
